<?xml version="1.0" encoding="UTF-8" standalone="no"?>
<svg
   xmlns:dc="http://purl.org/dc/elements/1.1/"
   xmlns:cc="http://creativecommons.org/ns#"
   xmlns:rdf="http://www.w3.org/1999/02/22-rdf-syntax-ns#"
   xmlns:svg="http://www.w3.org/2000/svg"
   xmlns="http://www.w3.org/2000/svg"
   xmlns:sodipodi="http://sodipodi.sourceforge.net/DTD/sodipodi-0.dtd"
   xmlns:inkscape="http://www.inkscape.org/namespaces/inkscape"
   id="Capa_1"
   enable-background="new 0 0 511.945 511.945"
   height="558.78699"
   viewBox="0 0 558.72696 558.72696"
   width="558.78699"
   version="1.1"
   sodipodi:docname="gene-mutation_white_background.svg"
   inkscape:version="0.92.3 (2405546, 2018-03-11)">
  <metadata
     id="metadata91">
    <rdf:RDF>
      <cc:Work
         rdf:about="">
        <dc:format>image/svg+xml</dc:format>
        <dc:type
           rdf:resource="http://purl.org/dc/dcmitype/StillImage" />
        <dc:title></dc:title>
      </cc:Work>
    </rdf:RDF>
  </metadata>
  <defs
     id="defs89" />
  <sodipodi:namedview
     pagecolor="#ffffff"
     bordercolor="#666666"
     borderopacity="1"
     objecttolerance="10"
     gridtolerance="10"
     guidetolerance="10"
     inkscape:pageopacity="1"
     inkscape:pageshadow="2"
     inkscape:window-width="1920"
     inkscape:window-height="1057"
     id="namedview87"
     showgrid="false"
     inkscape:pagecheckerboard="true"
     inkscape:zoom="1.3037281"
     inkscape:cx="477.55607"
     inkscape:cy="328.71612"
     inkscape:window-x="1912"
     inkscape:window-y="-8"
     inkscape:window-maximized="1"
     inkscape:current-layer="layer1" />
  <circle
     style="opacity:0.3;fill:#000000;fill-opacity:1;fill-rule:nonzero;stroke:#000000;stroke-width:0;stroke-linecap:square;stroke-linejoin:miter;stroke-miterlimit:10;stroke-dasharray:none;stroke-dashoffset:0;stroke-opacity:1;paint-order:markers fill stroke"
     id="path1001"
     cx="279.36349"
     cy="279.36349"
     r="279.36349" />
  <g
     id="g4"
     transform="translate(28.376084,22.240632)">
    <path
       style="fill:#f5de46"
       inkscape:connector-curvature="0"
       id="path2"
       d="m 317.969,324.794 c -1.919,0 -3.839,-0.732 -5.303,-2.196 L 188.641,198.574 c -2.929,-2.93 -2.929,-7.678 0,-10.607 2.929,-2.928 7.678,-2.928 10.606,0 l 124.025,124.024 c 2.929,2.93 2.929,7.678 0,10.607 -1.464,1.464 -3.384,2.196 -5.303,2.196 z" />
  </g>
  <g
     id="g8"
     transform="translate(28.376084,22.240632)">
    <path
       style="fill:#f5de46"
       inkscape:connector-curvature="0"
       id="path6"
       d="m 492.9,162.112 c -1.927,0 -3.853,-0.737 -5.318,-2.212 L 351.691,23.243 c -2.92,-2.937 -2.907,-7.686 0.03,-10.606 2.938,-2.921 7.687,-2.907 10.607,0.03 l 135.89,136.656 c 2.92,2.937 2.907,7.686 -0.03,10.606 -1.463,1.456 -3.376,2.183 -5.288,2.183 z" />
  </g>
  <g
     id="g12"
     transform="translate(28.376084,22.240632)">
    <path
       style="fill:#f5de46"
       inkscape:connector-curvature="0"
       id="path10"
       d="m 439.352,178.901 c -1.919,0 -3.839,-0.732 -5.304,-2.197 L 334.543,77.182 c -2.929,-2.929 -2.928,-7.678 10e-4,-10.606 2.929,-2.928 7.678,-2.929 10.606,0.001 l 99.505,99.522 c 2.929,2.929 2.928,7.678 -10e-4,10.606 -1.464,1.463 -3.383,2.196 -5.302,2.196 z" />
  </g>
  <g
     id="g16"
     transform="translate(28.376084,22.240632)">
    <path
       style="fill:#f5de46"
       inkscape:connector-curvature="0"
       id="path14"
       d="m 148.381,497.447 c -1.919,0 -3.839,-0.732 -5.303,-2.196 L 15.989,368.161 c -2.929,-2.93 -2.929,-7.678 0,-10.607 2.929,-2.928 7.678,-2.928 10.606,0 l 127.089,127.089 c 2.929,2.93 2.929,7.678 0,10.607 -1.464,1.464 -3.384,2.197 -5.303,2.197 z" />
  </g>
  <g
     id="g20"
     transform="translate(28.376084,22.240632)">
    <path
       style="fill:#f5de46"
       inkscape:connector-curvature="0"
       id="path18"
       d="m 174.282,452.395 c -1.914,0 -3.828,-0.728 -5.292,-2.185 L 60.81,342.514 c -2.936,-2.923 -2.946,-7.671 -0.024,-10.606 2.923,-2.938 7.672,-2.947 10.607,-0.024 L 179.574,439.58 c 2.936,2.923 2.946,7.671 0.024,10.606 -1.466,1.472 -3.391,2.209 -5.316,2.209 z" />
  </g>
  <g
     id="g24"
     transform="translate(28.376084,22.240632)">
    <path
       style="fill:#f5de46"
       inkscape:connector-curvature="0"
       id="path22"
       d="m 346.813,282.929 c -1.919,0 -3.839,-0.732 -5.303,-2.196 l -69.186,-69.186 c -2.929,-2.93 -2.929,-7.678 0,-10.607 2.929,-2.928 7.678,-2.928 10.606,0 l 69.186,69.186 c 2.929,2.93 2.929,7.678 0,10.607 -1.464,1.464 -3.383,2.196 -5.303,2.196 z" />
  </g>
  <path
     d="m 219.52108,409.53963 c -6.02,-1.23 -12.06,-2.73 -18.11,-4.51 -3.47,-1.02 -8.38,-2.4 -14.29,-3.87 -1.24,-7.69 -2.69,-14.98 -4.17,-21.55 10.13,2.28 18.55,4.59 24.11,6.23 3.08,0.91 6.16,1.74 9.22,2.49 1.271,6.88 2.381,13.989 3.24,21.21 z"
     id="path28"
     inkscape:connector-curvature="0"
     style="fill:#68b76a" />
  <path
     style="fill:#f3d332"
     inkscape:connector-curvature="0"
     id="path30"
     d="m 77.902084,402.71963 c -0.65,0.52 -1.26,1.08 -1.83,1.65 -3.08,3.08 -6.62,5.53 -10.47,7.27 l -23.84,-23.84 c -2.93,-2.93 -2.93,-7.68 0,-10.61 2.93,-2.92 7.68,-2.92 10.61,0 z" />
  <path
     style="fill:#f3d332"
     inkscape:connector-curvature="0"
     id="path32"
     d="m 138.64208,392.70963 c -5.65,-0.49 -11.34,-0.78 -16.95,-0.78 -1.68,0 -3.32,0.03 -4.92,0.08 l -28.779996,-28.87 c -2.92,-2.93 -2.92,-7.68 0.02,-10.61 2.93,-2.92 7.68,-2.91 10.6,0.02 z" />
  <path
     style="fill:#f3d332"
     inkscape:connector-curvature="0"
     id="path34"
     d="m 398.64208,135.14863 -42.82,-42.809998 c -2.93,-2.93 -2.93,-7.68 -0.01,-10.61 2.93,-2.93 7.68,-2.93 10.61,0 l 31.38,31.369998 v 0.01 c -0.15,6.971 0.15,14.381 0.84,22.04 z" />
  <path
     d="m 256.83708,189.71063 c 4.87,4.839 3.515,13.012 -2.638,16.06 -9.384,4.649 -17.829,10.65 -25.104,17.925 -21.134,21.134 -31.515,52.147 -29.228,87.34 l 0.086,1.247 c 0.717,10.997 2.81,22.453 6.23,34.06 0.738,2.502 1.484,5.112 2.222,7.814 l -19.367,8.136 -14.801,-16.022 c -2.602,-10.632 -4.251,-21.17 -4.918,-31.429 l -0.079,-1.255 c -2.882,-44.233 10.739,-83.791 38.347,-111.399 5.716,-5.716 11.945,-10.833 18.621,-15.328 9.602,-6.463 22.419,-5.307 30.629,2.851 z"
     id="path38"
     inkscape:connector-curvature="0"
     style="fill:#ffffff;fill-opacity:1" />
  <path
     d="m 416.96108,61.099632 c -1.65,3.2 -3.81,6.2 -6.49,8.88 -0.96,0.96 -1.86,2.02 -2.71,3.16 l -26.26,-26.54 c -2.92,-2.95 -2.89,-7.7 0.05,-10.61 2.95,-2.91 7.7,-2.89 10.61,0.05 z"
     id="path40"
     inkscape:connector-curvature="0"
     style="fill:#f3d332" />
  <path
     d="m 193.84508,522.13363 c -6.051,6.051 -15.772,6.137 -21.708,0.201 -5.936,-5.936 -5.85,-15.657 0.201,-21.708 26.403,-26.403 18.776,-84.673 10.61,-121.013 l 18.288,-9.746 15.048,18.464 c 8.467,45.845 9.707,101.656 -22.439,133.802 z"
     id="path42"
     inkscape:connector-curvature="0"
     style="fill:#ffffff;fill-opacity:1" />
  <path
     d="m 219.52208,409.53963 c -6.02,-1.23 -12.06,-2.73 -18.11,-4.51 -3.47,-1.02 -8.38,-2.4 -14.29,-3.87 -1.24,-7.69 -2.69,-14.98 -4.17,-21.55 l 22.782,-3.376 10.548,12.096 c 1.27,6.88 2.38,13.989 3.24,21.21 z"
     id="path44"
     inkscape:connector-curvature="0"
     style="fill:#ffffff;fill-opacity:1" />
  <path
     d="m 40.228084,390.42463 c -5.939,-5.939 -5.85,-15.657 0.198,-21.705 43.072,-43.072 128.625996,-26.219 175.789996,-12.339 11.612,3.418 23.07,5.513 34.058,6.227 l 1.256,0.082 c 35.184,2.289 66.203,-8.09 87.338,-29.223 21.134,-21.131 31.515,-52.147 29.23,-87.331 -0.765,-11.771 -2.911,-23.801 -6.377,-35.754 -13.678,-47.183 -30.163,-132.795998 13.1,-176.057998 6.048,-6.048 15.766,-6.137 21.705,-0.198 5.939,5.939 5.85,15.657 -0.198,21.705 -34.02,34.02 -12.513,119.974998 -5.111,145.508998 4.078,14.063 6.606,28.278 7.513,42.25 2.872,44.225 -10.75,83.782 -38.357,111.386 -27.608,27.605 -67.169,41.224 -111.396,38.346 l -1.255,-0.081 c -13.225,-0.86 -26.907,-3.349 -40.665,-7.398 -25.508,-7.507 -111.361996,-29.377 -145.122996,4.384 -6.049,6.048 -15.767,6.137 -21.706,0.198 z"
     id="path46"
     inkscape:connector-curvature="0"
     style="fill:#ffffff;fill-opacity:1" />
  <path
     d="m 397.55208,231.62863 c -2.47,-0.4 -4.95,-0.83 -7.45,-1.28 -8.05,-1.46 -16.36,-3.23 -24.8,-5.3 -0.97,-4.89 -2.17,-9.78 -3.58,-14.67 -0.69,-2.39 -1.39,-4.87 -2.09,-7.45 h 0.01 l 18.244,-3.186 15.796,10.936 c 1.69,6.981 2.98,13.981 3.87,20.95 z"
     id="path48"
     inkscape:connector-curvature="0"
     style="fill:#ffffff;fill-opacity:1" />
  <path
     d="m 303.88908,182.67863 c 1.817,-11.046 11.965,-18.717 23.092,-17.49 9.3,1.026 19.441,2.378 24.905,3.693 3.119,0.738 6.23,1.57 9.334,2.466 5.527,1.598 13.879,3.857 23.923,6.072 36.383,8.036 94.932,15.471 121.586,-11.184 6.051,-6.051 15.772,-6.137 21.708,-0.201 5.936,5.936 5.85,15.657 -0.201,21.708 -32.404,32.404 -88.58,31.285 -134.555,22.934 -12.295,-2.229 -23.851,-4.982 -34.038,-7.743 -2.581,-0.703 -5.069,-1.398 -7.456,-2.093 -11.958,-3.47 -23.995,-5.613 -35.759,-6.38 -1.011,-0.066 -2.019,-0.121 -3.024,-0.165 -6.023,-0.268 -10.494,-5.668 -9.515,-11.617 z"
     id="path50"
     inkscape:connector-curvature="0"
     style="fill:#ffffff;fill-opacity:1" />
  <path
     style="fill:#f5de46"
     inkscape:connector-curvature="0"
     id="path52"
     d="m 269.63208,134.71163 c -3.448,0 -6.552,-2.393 -7.319,-5.899 l -12.822,-58.613998 c -0.885,-4.046 1.678,-8.044 5.724,-8.93 4.045,-0.884 8.044,1.678 8.929,5.725 l 12.822,58.613998 c 0.885,4.046 -1.677,8.044 -5.724,8.93 -0.539,0.117 -1.079,0.174 -1.61,0.174 z" />
  <path
     style="fill:#f5de46"
     inkscape:connector-curvature="0"
     id="path56"
     d="m 243.54008,155.77363 c -1.995,0 -3.984,-0.79 -5.459,-2.356 l -39.992,-42.435 c -2.841,-3.014 -2.7,-7.761 0.314,-10.602 3.015,-2.842998 7.762,-2.700998 10.602,0.314 l 39.992,42.435 c 2.841,3.014 2.7,7.761 -0.314,10.602 -1.45,1.366 -3.299,2.042 -5.143,2.042 z" />
  <path
     style="fill:#f5de46"
     inkscape:connector-curvature="0"
     id="path60"
     d="m 302.15308,142.95363 c -0.794,0 -1.602,-0.127 -2.396,-0.395 -3.925,-1.323 -6.035,-5.577 -4.712,-9.503 l 18.622,-55.255998 c 1.323,-3.925 5.578,-6.034 9.502,-4.712 3.925,1.323 6.035,5.577 4.712,9.503 l -18.622,55.255998 c -1.054,3.132 -3.975,5.107 -7.106,5.107 z" />
  <path
     style="fill:#f3d332"
     inkscape:connector-curvature="0"
     id="path64"
     d="m 249.53208,232.22963 c -2.2,1.75 -4.3,3.62 -6.29,5.61 -1.55,1.55 -3.04,3.18 -4.44,4.87 l -14.21,-14.17 c 3.268,-3.791 6.868,-7.294 10.71,-10.5 z" />
  <path
     style="fill:#f3d332"
     inkscape:connector-curvature="0"
     id="path68"
     d="m 222.54208,275.84963 c -1.44,5.86 -2.37,12.03 -2.76,18.44 l -17.85,-17.85 c 1.103,-5.651 2.615,-11.217 4.57,-16.63 z" />
  <path
     d="m 262.31308,128.81263 c 0.767,3.507 3.872,5.899 7.319,5.899 4.715,0.052 8.403,-4.499 7.334,-9.104 l -12.822,-58.613998 c -0.885,-4.047 -4.884,-6.608 -8.929,-5.725 -4.046,0.886 -6.609,4.884 -5.724,8.93 z"
     id="path76"
     inkscape:connector-curvature="0" />
  <path
     d="m 238.08008,153.41763 c 2.845,3.019 7.593,3.151 10.602,0.314 3.014,-2.841 3.155,-7.588 0.314,-10.602 l -39.992,-42.435 c -2.84,-3.015998 -7.587,-3.156998 -10.602,-0.314 -3.014,2.841 -3.155,7.588 -0.314,10.602 z"
     id="path78"
     inkscape:connector-curvature="0" />
  <path
     d="m 299.75708,142.55963 c 3.82,1.318 8.187,-0.749 9.502,-4.712 l 18.622,-55.255998 c 1.323,-3.926 -0.787,-8.18 -4.712,-9.503 -3.925,-1.322 -8.18,0.787 -9.502,4.712 l -18.622,55.255998 c -1.323,3.925 0.787,8.179 4.712,9.503 z"
     id="path80"
     inkscape:connector-curvature="0" />
  <g
     inkscape:groupmode="layer"
     id="layer1"
     inkscape:label="NotVisible"
     sodipodi:insensitive="true"
     style="display:none">
    <path
       d="m 533.73908,160.73163 c -6.254,-6.253 -15.317,-8.021 -23.263,-5.376 L 407.36008,51.657632 c 2.441,-7.841 0.611,-16.694 -5.53,-22.836 -8.853,-8.852 -23.348,-8.763 -32.312,0.198 -15.943,15.943 -25.667,38.364 -28.901,66.64 -2.157,18.855998 -1.439,40.331998 2.125,63.958998 -5.01,-0.736 -10.412,-1.385 -14.939,-1.885 -15.097,-1.663 -28.853,8.757 -31.315,23.729 -2.133,11.435 8.216,21.358 19.452,20.482 12.374,0.756 25.209,3.338 37.613,7.086 6.186,20.469 9.048,42.017 6.333,62.728 l -48.579,-48.579 c -2.929,-2.928 -7.678,-2.928 -10.606,0 -2.929,2.93 -2.929,7.678 0,10.607 l 55.513,55.513 c -3.631,12.227 -9.33,23.221 -16.949,32.548 l -98.542,-98.542 c 5.105,-4.17 10.724,-7.801 16.807,-10.815 10.567,-4.884 13.072,-20.114 4.594,-28.101 -10.688,-10.62 -27.555,-12.199 -40.103,-3.751 -6.771,4.56 -13.141,9.757 -18.932,15.448 -2.954,2.903 -2.995,7.652 -0.091,10.605 2.903,2.955 7.651,2.996 10.606,0.092 5.135,-5.047 10.785,-9.657 16.794,-13.702 6.629,-4.465 15.524,-3.645 21.153,1.947 1.233,1.657 1.027,2.838 -0.68,4.021 -10.173,5.04 -19.284,11.547 -27.079,19.341 -22.683,22.684 -33.837,55.758 -31.407,93.159 0.629,10.51 2.35,21.139 5.249,32.067 -5.666,-1.348 -11.493,-2.681 -17.189,-3.795 -1.977,-9.073 -3.209,-17.934 -3.718,-26.723 -1.927,-29.573 3.902,-57.298 16.856,-80.176 2.041,-3.604 0.773,-8.181 -2.831,-10.222 -3.604,-2.042 -8.181,-0.774 -10.222,2.831 -14.397,25.428 -20.889,56.045 -18.772,88.522 0.443,7.605 1.392,15.232 2.841,23.017 -45.371,-6.875 -97.713996,-5.418 -129.472996,26.342 -8.86,8.493 -9.065,23.797 -0.199,32.312 5.35,5.436 13.388,7.725 20.836,6.072 l 105.003996,105.003 c -1.654,7.453 0.638,15.488 6.069,20.834 8.521,8.87 23.82,8.658 32.314,-0.2 8.706,-8.706 15.601,-19.465 20.493,-31.977 1.509,-3.858 -0.396,-8.208 -4.254,-9.717 -3.856,-1.508 -8.208,0.397 -9.716,4.254 -4.134,10.572 -9.897,19.601 -17.129,26.833 -2.907,3.04 -8.175,3.251 -11.101,0.2 -3.042,-2.933 -2.842,-8.191 0.201,-11.1 25.452,-25.452 23.013,-75.128 15.072,-116.257 5.847,1.466 11.283,3.135 17.03,4.716 4.039,23.657 5.142,44.99 3.276,63.471 -0.416,4.121 2.587,7.799 6.708,8.215 4.117,0.425 7.799,-2.587 8.215,-6.709 1.837,-18.193 1.013,-38.806 -2.432,-61.395 50.961,10.108 106.814,-3.13 140.166,-37.691 29.155,-29.152 43.551,-70.767 40.538,-117.177 -0.499,-7.678 -1.484,-15.456 -2.919,-23.234 11.414,1.708 22.384,2.763 32.727,3.136 0.092,0.003 0.184,0.005 0.275,0.005 4.017,0 7.344,-3.183 7.49,-7.229 0.149,-4.14 -3.085,-7.616 -7.225,-7.766 -12.897,-0.465 -26.871,-2.052 -41.538,-4.717 -25.405,-3.973 -52.239,-15.09 -78.113,-16.321 -2.306,-0.142 -6.011,0.209 -5.623,-3.08 1.168,-7.101 7.694,-12.039 14.87,-11.252 26.676,2.514 31.741,6.444 57.366,12.099 19.226,4.247 41.267,7.681 62.293,7.68 26.095,-0.002 50.623,-5.292 66.213,-20.883 3.116,-3.117 8.096,-3.206 11.101,-0.202 3.005,3.006 2.916,7.986 -0.2,11.102 -12.572,12.572 -30.333,20.632 -52.792,23.955 -4.098,0.606 -6.928,4.419 -6.322,8.517 0.606,4.098 4.42,6.93 8.517,6.321 25.713,-3.805 46.305,-13.288 61.203,-28.186 8.963,-8.963 9.053,-23.459 0.199,-32.313 z m -320.362,183.492 c -5.997,-20.385 -7.911,-41.076 -4.955,-61.292 l 28.729,28.729 c 1.464,1.464 3.384,2.196 5.303,2.196 1.919,0 3.839,-0.732 5.303,-2.196 2.929,-2.93 2.929,-7.678 0,-10.607 l -35.34,-35.34 c 3.86,-12.036 9.763,-22.823 17.566,-31.931 l 98.796,98.797 c -9.108,7.803 -19.896,13.707 -31.932,17.566 l -24.342,-24.343 c -2.928,-2.93 -7.677,-2.929 -10.606,-0.001 -2.929,2.929 -2.929,7.678 0,10.606 l 17.731,17.732 c -21.477,3.21 -43.679,0.63 -65.138,-6.065 -0.362,-1.275 -0.734,-2.561 -1.115,-3.851 z m -44.682,149.295 -99.647996,-99.647 c 8.59,-7.53 21.125,-11.741 35.864996,-13.461 l 77.381,77.034 c -1.613,14.24 -5.675,27.078 -13.598,36.074 z m 14.421,-56.421 -57.847,-57.588 c 16.286,0.287 33.986,2.684 51.366,6.367 3.067,14.504 6.08,33.036 6.481,51.221 z m 171.955,-87.425 c -26.061,26.057 -63.566,38.907 -105.604,36.165 -39.853,-2.984 -65.918,-18.116 -111.31,-20.758 -38.051,-2.878 -65.478996,3.796 -81.526996,19.844 -2.91,3.041 -8.162,3.243 -11.098,0.197 -3.043,-2.933 -2.844,-8.189 0.198,-11.098 29.878,-29.878 82.875996,-28.58 126.869996,-20.449 25.958,4.143 52.465,15.464 78.444,16.602 37.375,2.434 70.445,-8.723 93.127,-31.404 22.683,-22.68 33.838,-55.75 31.412,-93.121 -0.691,-10.633 -2.461,-21.458 -5.26,-32.25 5.799,1.391 11.524,2.638 17.14,3.733 1.932,9.016 3.207,18.057 3.784,26.942 2.73,42.039 -10.118,79.541 -36.176,105.597 z m 106.285,-173.012 -75.452,-75.465 c 1.468,-14.363998 5.301,-27.457998 12.899,-36.869998 l 99.12,99.677998 c -9.391,7.437 -22.357,11.207 -36.567,12.657 z m -69.898,-5.563 c -2.904,-14.013 -5.728,-31.76 -6.217,-49.351 l 55.565,55.575 c -17.59,-0.491 -35.336,-3.317 -49.348,-6.224 z m -33.019,-8.302 c -4.06752,-24.31564 -6.12614,-52.88747 -0.82635,-78.284992 3.58505,-17.180199 10.53721,-32.90787 22.51235,-44.883006 3.114,-3.114 8.093,-3.205 11.098,-0.199 3.005,3.006 2.917,7.985 -0.198,11.1 -25.686,25.686 -23.412,75.611998 -15.593,116.888998 -7.228,-1.805 -11.149,-3.048 -16.993,-4.622 z"
       id="path74"
       inkscape:connector-curvature="0"
       sodipodi:nodetypes="ccccccccccccccsccccccccccccccccccccccccccccccccccccccccccccsccccccccccscscscccsscscccccccccccccccccccccccccccccccccccccccccccsssscc" />
  </g>
</svg>
